<?xml version="1.0" encoding="utf-8"?>
<!-- Generator: Adobe Illustrator 21.0.2, SVG Export Plug-In . SVG Version: 6.00 Build 0)  -->
<svg version="1.1" id="Layer_1" xmlns="http://www.w3.org/2000/svg" xmlns:xlink="http://www.w3.org/1999/xlink" x="0px" y="0px"
	 viewBox="0 0 570 148" style="enable-background:new 0 0 570 148;" xml:space="preserve">
<defs>
  <style type="text/css">
    @import url('https://fonts.googleapis.com/css?family=Lato|Nunito');
 </style>
</defs>
<style type="text/css">
	.st0{fill:#DFDFDE;stroke:#FFFFFF;stroke-width:2;stroke-miterlimit:10;}
	.st1{fill:#1D9048;stroke:#FFFFFF;stroke-width:2;stroke-miterlimit:10;}
	.st2{fill:#86C556;stroke:#FFFFFF;stroke-width:2;stroke-miterlimit:10;}
	.st3{fill:#D5E382;stroke:#FFFFFF;stroke-width:2;stroke-miterlimit:10;}
	.st4{fill:#FFDC81;stroke:#FFFFFF;stroke-width:2;stroke-miterlimit:10;}
	.st5{fill:#F58151;stroke:#FFFFFF;stroke-width:2;stroke-miterlimit:10;}
	.st6{fill:#D12A27;stroke:#FFFFFF;stroke-width:2;stroke-miterlimit:10;}
	.st7{fill:none;stroke:#FFFFFF;stroke-width:4;stroke-miterlimit:10;}
	.st8{fill:none;stroke:#FFFFFF;stroke-width:5;stroke-miterlimit:10;}
	.st9{font-family:'Lato';}
	.st10{font-size:11px;}
	.st11{fill:none;}
	.st12{font-size:10px;}
	.st13{font-size:9px;}
	.st14{font-family:'Nunito';}
	.st15{font-size:12px;}
</style>
<rect x="23.9" y="54.4" class="st0" width="75.6" height="21.8"/>
<rect x="99.5" y="54.4" class="st1" width="75.6" height="21.8"/>
<rect x="175.1" y="54.4" class="st2" width="75.6" height="21.8"/>
<rect x="250.7" y="54.4" class="st3" width="75.6" height="21.8"/>
<rect x="326.2" y="54.4" class="st4" width="75.6" height="21.8"/>
<rect x="401.8" y="54.4" class="st5" width="75.6" height="21.8"/>
<rect x="477.4" y="54.4" class="st6" width="75.6" height="21.8"/>
<line class="st7" x1="637.9" y1="-69.8" x2="637.9" y2="-95.1"/>
<path class="st8" d="M216.5,54.4"/>
<path class="st8" d="M120.2,54.4"/>
<path class="st8" d="M312.8,54.4"/>
<path class="st8" d="M216.5,54.4"/>
<path class="st8" d="M409,54.4"/>
<path class="st8" d="M312.8,54.4"/>
<path class="st8" d="M505.3,54.4"/>
<path class="st8" d="M409,54.4"/>
<g>
	<text transform="matrix(1 0 0 1 117.3447 94.1949)" class="st9 st10">&lt;20%</text>
</g>
<g>
	<text transform="matrix(1 0 0 1 184.1507 94.1949)" class="st9 st10">20.1%–25%</text>
</g>
<text transform="matrix(1 0 0 1 259.5368 94.1949)" class="st9 st10">25.1%–30%</text>
<g>
	<text transform="matrix(1 0 0 1 335.9221 94.1949)" class="st9 st10">30.1%–40%</text>
</g>
<g>
	<text transform="matrix(1 0 0 1 412.3082 94.1949)" class="st9 st10">40.1%–50%</text>
</g>
<g>
	<text transform="matrix(1 0 0 1 502.2729 94.1949)" class="st9 st10">&gt;50%</text>
</g>
<path d="M575.2-109.6v7.3h-0.5v-7.3H575.2z M577.1-105L577.1-105c0,0.5,0,0.8,0.1,1.1c0.1,0.3,0.2,0.5,0.4,0.7s0.4,0.3,0.6,0.4
	c0.2,0.1,0.5,0.1,0.8,0.1c0.2,0,0.5,0,0.6-0.1c0.2-0.1,0.3-0.1,0.5-0.2c0.1-0.1,0.2-0.1,0.3-0.2s0.1-0.1,0.2-0.1h0.1l0.1,0.2
	c-0.1,0.1-0.2,0.2-0.3,0.3c-0.1,0.1-0.3,0.2-0.4,0.2c-0.2,0.1-0.3,0.1-0.5,0.1s-0.4,0.1-0.6,0.1c-0.3,0-0.6-0.1-0.9-0.2
	c-0.3-0.1-0.5-0.3-0.7-0.5s-0.4-0.5-0.5-0.8s-0.2-0.7-0.2-1.1s0.1-0.7,0.2-1c0.1-0.3,0.2-0.6,0.4-0.8c0.2-0.2,0.4-0.4,0.7-0.5
	s0.6-0.2,0.9-0.2c0.3,0,0.5,0,0.8,0.1c0.2,0.1,0.4,0.2,0.6,0.4c0.2,0.2,0.3,0.4,0.4,0.7c0.1,0.3,0.2,0.6,0.2,0.9c0,0.1,0,0.1,0,0.2
	h-0.1h-3.7V-105z M580.4-105.3c0-0.3,0-0.5-0.1-0.7s-0.2-0.4-0.3-0.5s-0.3-0.3-0.5-0.3c-0.2-0.1-0.4-0.1-0.6-0.1
	c-0.3,0-0.5,0-0.7,0.1s-0.4,0.2-0.5,0.3c-0.1,0.2-0.3,0.3-0.4,0.5c-0.1,0.2-0.2,0.4-0.2,0.7H580.4z M584.9-106.7L584.9-106.7
	c-0.1,0.1-0.2,0.1-0.2,0c-0.1,0-0.1-0.1-0.2-0.1c-0.1-0.1-0.2-0.1-0.4-0.1c-0.1,0-0.3-0.1-0.5-0.1s-0.3,0-0.5,0.1
	c-0.1,0.1-0.3,0.1-0.4,0.2c-0.1,0.1-0.2,0.2-0.2,0.3c-0.1,0.1-0.1,0.2-0.1,0.4c0,0.2,0,0.3,0.1,0.4s0.2,0.2,0.3,0.3
	c0.1,0.1,0.3,0.1,0.4,0.2c0.2,0.1,0.3,0.1,0.5,0.2s0.3,0.1,0.5,0.2s0.3,0.1,0.4,0.2c0.1,0.1,0.2,0.2,0.3,0.4
	c0.1,0.1,0.1,0.3,0.1,0.5s0,0.4-0.1,0.6s-0.2,0.3-0.3,0.5c-0.1,0.1-0.3,0.2-0.5,0.3c-0.2,0.1-0.5,0.1-0.7,0.1
	c-0.4,0-0.7-0.1-0.9-0.2c-0.3-0.1-0.5-0.3-0.7-0.4l0.1-0.2c0,0,0,0,0.1-0.1h0.1c0,0,0.1,0,0.2,0.1c0.1,0.1,0.1,0.1,0.2,0.2
	c0.1,0.1,0.2,0.1,0.4,0.2s0.3,0.1,0.6,0.1c0.2,0,0.4,0,0.6-0.1c0.2-0.1,0.3-0.1,0.4-0.2c0.1-0.1,0.2-0.2,0.2-0.4
	c0.1-0.1,0.1-0.3,0.1-0.4c0-0.2,0-0.3-0.1-0.4s-0.2-0.2-0.3-0.3c-0.1-0.1-0.3-0.1-0.4-0.2c-0.2-0.1-0.3-0.1-0.5-0.2
	s-0.3-0.1-0.5-0.2s-0.3-0.1-0.4-0.2c-0.1-0.1-0.2-0.2-0.3-0.4c-0.1-0.1-0.1-0.3-0.1-0.5s0-0.3,0.1-0.5s0.2-0.3,0.3-0.4
	s0.3-0.2,0.5-0.3c0.2-0.1,0.4-0.1,0.7-0.1s0.6,0,0.8,0.1s0.4,0.2,0.6,0.4H584.9z M589.1-106.7L589.1-106.7c-0.1,0.1-0.2,0.1-0.2,0
	c-0.1,0-0.1-0.1-0.2-0.1c-0.1-0.1-0.2-0.1-0.4-0.1c-0.1,0-0.3-0.1-0.5-0.1s-0.3,0-0.5,0.1c-0.1,0.1-0.3,0.1-0.4,0.2
	c-0.1,0.1-0.2,0.2-0.2,0.3c-0.1,0.1-0.1,0.2-0.1,0.4c0,0.2,0,0.3,0.1,0.4s0.2,0.2,0.3,0.3c0.1,0.1,0.3,0.1,0.4,0.2
	c0.2,0.1,0.3,0.1,0.5,0.2s0.3,0.1,0.5,0.2s0.3,0.1,0.4,0.2c0.1,0.1,0.2,0.2,0.3,0.4c0.1,0.1,0.1,0.3,0.1,0.5s0,0.4-0.1,0.6
	s-0.2,0.3-0.3,0.5c-0.1,0.1-0.3,0.2-0.5,0.3c-0.2,0.1-0.5,0.1-0.7,0.1c-0.4,0-0.7-0.1-0.9-0.2c-0.3-0.1-0.5-0.3-0.7-0.4l0.1-0.2
	c0,0,0,0,0.1-0.1h0.1c0,0,0.1,0,0.2,0.1c0.1,0.1,0.1,0.1,0.2,0.2c0.1,0.1,0.2,0.1,0.4,0.2s0.3,0.1,0.6,0.1c0.2,0,0.4,0,0.6-0.1
	c0.2-0.1,0.3-0.1,0.4-0.2c0.1-0.1,0.2-0.2,0.2-0.4c0.1-0.1,0.1-0.3,0.1-0.4c0-0.2,0-0.3-0.1-0.4s-0.2-0.2-0.3-0.3
	c-0.1-0.1-0.3-0.1-0.4-0.2c-0.2-0.1-0.3-0.1-0.5-0.2s-0.3-0.1-0.5-0.2s-0.3-0.1-0.4-0.2c-0.1-0.1-0.2-0.2-0.3-0.4
	c-0.1-0.1-0.1-0.3-0.1-0.5s0-0.3,0.1-0.5s0.2-0.3,0.3-0.4s0.3-0.2,0.5-0.3c0.2-0.1,0.4-0.1,0.7-0.1s0.6,0,0.8,0.1s0.4,0.2,0.6,0.4
	H589.1z M593.2-106.6c0.3-0.3,0.5-0.5,0.8-0.6s0.6-0.2,1-0.2c0.3,0,0.5,0,0.7,0.1s0.4,0.2,0.5,0.4c0.1,0.2,0.2,0.3,0.3,0.6
	c0.1,0.2,0.1,0.5,0.1,0.8v3.2h-0.2c-0.1,0-0.2,0-0.2-0.1l-0.1-0.6c-0.1,0.1-0.3,0.3-0.4,0.4c-0.1,0.1-0.3,0.2-0.4,0.3
	c-0.1,0.1-0.3,0.1-0.5,0.2c-0.2,0-0.4,0.1-0.6,0.1c-0.2,0-0.3,0-0.5-0.1c-0.2,0-0.3-0.1-0.4-0.2c-0.1-0.1-0.2-0.2-0.3-0.4
	c-0.1-0.2-0.1-0.4-0.1-0.6s0.1-0.4,0.2-0.6s0.3-0.3,0.6-0.5c0.3-0.1,0.6-0.2,1-0.3s0.9-0.1,1.4-0.1v-0.5c0-0.5-0.1-0.8-0.3-1.1
	c-0.2-0.2-0.5-0.4-0.9-0.4c-0.2,0-0.4,0-0.6,0.1c-0.2,0.1-0.3,0.1-0.4,0.2c-0.1,0.1-0.2,0.2-0.3,0.2c-0.1,0.1-0.1,0.1-0.2,0.1h-0.1
	c0,0,0,0-0.1-0.1V-106.6z M596.1-104.7c-0.5,0-0.9,0.1-1.2,0.1c-0.3,0.1-0.6,0.1-0.8,0.2s-0.4,0.2-0.5,0.4c-0.1,0.1-0.2,0.3-0.2,0.5
	s0,0.3,0.1,0.4s0.1,0.2,0.2,0.3c0.1,0.1,0.2,0.1,0.3,0.2c0.1,0,0.2,0.1,0.4,0.1s0.4,0,0.5-0.1c0.2,0,0.3-0.1,0.5-0.2
	c0.1-0.1,0.3-0.2,0.4-0.3c0.1-0.1,0.2-0.2,0.4-0.3v-1.3H596.1z M598.4-102.3v-4.5h-0.7c-0.1,0-0.1-0.1-0.1-0.1v-0.2h0.8v-0.6
	c0-0.3,0-0.5,0.1-0.7s0.2-0.4,0.3-0.5s0.3-0.3,0.5-0.3c0.2-0.1,0.4-0.1,0.6-0.1c0.1,0,0.2,0,0.3,0s0.2,0,0.3,0.1v0.2c0,0,0,0,0,0.1
	h-0.1c0,0-0.1,0-0.2,0c-0.1,0-0.1,0-0.2,0c-0.2,0-0.3,0-0.5,0.1c-0.1,0-0.3,0.1-0.4,0.2c-0.1,0.1-0.2,0.2-0.2,0.4
	c-0.1,0.2-0.1,0.4-0.1,0.6v0.6h2.6v-0.7c0-0.3,0-0.5,0.1-0.7s0.2-0.4,0.3-0.5s0.3-0.3,0.5-0.3c0.2-0.1,0.4-0.1,0.6-0.1
	c0.1,0,0.2,0,0.3,0s0.2,0,0.3,0.1v0.2c0,0,0,0,0,0.1h-0.1c0,0-0.1,0-0.2,0c-0.1,0-0.1,0-0.2,0c-0.2,0-0.3,0-0.5,0.1
	c-0.1,0-0.3,0.1-0.4,0.2c-0.1,0.1-0.2,0.2-0.2,0.4c-0.1,0.2-0.1,0.4-0.1,0.6v0.6h1.6v0.4H602v4.5h-0.5v-4.5h-2.6v4.5h-0.5V-102.3z
	 M606.4-107.3c0.4,0,0.7,0.1,1,0.2s0.5,0.3,0.7,0.5s0.3,0.5,0.4,0.8c0.1,0.3,0.2,0.7,0.2,1.1s-0.1,0.7-0.2,1.1
	c-0.1,0.3-0.2,0.6-0.4,0.8c-0.2,0.2-0.4,0.4-0.7,0.5s-0.6,0.2-1,0.2s-0.7-0.1-1-0.2s-0.5-0.3-0.7-0.5s-0.3-0.5-0.4-0.8
	c-0.1-0.3-0.2-0.7-0.2-1.1s0.1-0.7,0.2-1.1s0.2-0.6,0.4-0.8c0.2-0.2,0.4-0.4,0.7-0.5C605.7-107.3,606-107.3,606.4-107.3z
	 M606.4-102.6c0.3,0,0.6-0.1,0.8-0.2s0.4-0.2,0.6-0.4c0.1-0.2,0.3-0.4,0.3-0.7c0.1-0.3,0.1-0.6,0.1-0.9s0-0.6-0.1-0.9
	s-0.2-0.5-0.3-0.7s-0.3-0.3-0.6-0.4c-0.2-0.1-0.5-0.2-0.8-0.2s-0.6,0.1-0.8,0.2s-0.4,0.3-0.6,0.4c-0.1,0.2-0.3,0.4-0.3,0.7
	c-0.1,0.3-0.1,0.6-0.1,0.9s0,0.6,0.1,0.9s0.2,0.5,0.3,0.7s0.3,0.3,0.6,0.4C605.8-102.7,606.1-102.6,606.4-102.6z M610.4-106.1
	c0.1-0.2,0.2-0.4,0.3-0.5c0.1-0.2,0.2-0.3,0.3-0.4s0.3-0.2,0.4-0.3c0.2-0.1,0.3-0.1,0.5-0.1c0.1,0,0.2,0,0.3,0s0.2,0.1,0.3,0.1v0.3
	c0,0.1,0,0.1-0.1,0.1c0,0-0.1,0-0.2,0c-0.1,0-0.2,0-0.3,0c-0.2,0-0.4,0-0.5,0.1s-0.3,0.1-0.4,0.3c-0.1,0.1-0.2,0.3-0.3,0.4
	c-0.1,0.2-0.2,0.4-0.2,0.6v3.2H610v-5h0.3c0.1,0,0.1,0,0.1,0v0.1L610.4-106.1z M617.1-109.6v7.3h-0.3c-0.1,0-0.1,0-0.1-0.1l-0.1-0.8
	c-0.2,0.3-0.5,0.5-0.8,0.7s-0.6,0.3-1,0.3c-0.6,0-1.1-0.2-1.4-0.6c-0.3-0.4-0.5-1.1-0.5-1.9c0-0.4,0-0.7,0.1-1s0.2-0.6,0.4-0.8
	c0.2-0.2,0.4-0.4,0.7-0.5s0.6-0.2,0.9-0.2c0.3,0,0.6,0.1,0.9,0.2c0.2,0.1,0.5,0.3,0.6,0.6v-3h0.6V-109.6z M616.6-106.2
	c-0.2-0.3-0.4-0.5-0.6-0.6c-0.2-0.1-0.5-0.2-0.8-0.2s-0.5,0.1-0.8,0.2c-0.2,0.1-0.4,0.3-0.6,0.5c-0.1,0.2-0.3,0.4-0.3,0.7
	c-0.1,0.3-0.1,0.6-0.1,0.9c0,0.7,0.1,1.3,0.4,1.6c0.3,0.3,0.7,0.5,1.2,0.5c0.3,0,0.6-0.1,0.9-0.3c0.3-0.2,0.5-0.4,0.7-0.7
	L616.6-106.2L616.6-106.2z M618.6-106.6c0.3-0.3,0.5-0.5,0.8-0.6s0.6-0.2,1-0.2c0.3,0,0.5,0,0.7,0.1s0.4,0.2,0.5,0.4
	c0.1,0.2,0.2,0.3,0.3,0.6c0.1,0.2,0.1,0.5,0.1,0.8v3.2h-0.2c-0.1,0-0.2,0-0.2-0.1l-0.1-0.6c-0.1,0.1-0.3,0.3-0.4,0.4
	c-0.1,0.1-0.3,0.2-0.4,0.3c-0.1,0.1-0.3,0.1-0.5,0.2c-0.2,0-0.4,0.1-0.6,0.1c-0.2,0-0.3,0-0.5-0.1c-0.2,0-0.3-0.1-0.4-0.2
	c-0.1-0.1-0.2-0.2-0.3-0.4c-0.1-0.2-0.1-0.4-0.1-0.6s0.1-0.4,0.2-0.6s0.3-0.3,0.6-0.5c0.3-0.1,0.6-0.2,1-0.3s0.9-0.1,1.4-0.1v-0.5
	c0-0.5-0.1-0.8-0.3-1.1c-0.2-0.2-0.5-0.4-0.9-0.4c-0.2,0-0.4,0-0.6,0.1c-0.2,0.1-0.3,0.1-0.4,0.2c-0.1,0.1-0.2,0.2-0.3,0.2
	c-0.1,0.1-0.1,0.1-0.2,0.1h-0.1c0,0,0,0-0.1-0.1V-106.6z M621.5-104.7c-0.5,0-0.9,0.1-1.2,0.1c-0.3,0.1-0.6,0.1-0.8,0.2
	s-0.4,0.2-0.5,0.4c-0.1,0.1-0.2,0.3-0.2,0.5s0,0.3,0.1,0.4s0.1,0.2,0.2,0.3c0.1,0.1,0.2,0.1,0.3,0.2c0.1,0,0.2,0.1,0.4,0.1
	s0.4,0,0.5-0.1c0.2,0,0.3-0.1,0.5-0.2c0.1-0.1,0.3-0.2,0.4-0.3c0.1-0.1,0.2-0.2,0.4-0.3v-1.3H621.5z M624.1-106.4
	c0.2-0.3,0.5-0.5,0.8-0.7s0.6-0.3,1-0.3c0.3,0,0.6,0.1,0.8,0.2s0.4,0.3,0.6,0.5c0.2,0.2,0.3,0.5,0.4,0.8c0.1,0.3,0.1,0.6,0.1,1
	s0,0.8-0.1,1.1c-0.1,0.3-0.2,0.6-0.4,0.8s-0.4,0.4-0.7,0.5s-0.6,0.2-0.9,0.2c-0.4,0-0.7-0.1-0.9-0.2s-0.5-0.3-0.6-0.6v0.6
	c0,0.1-0.1,0.1-0.1,0.1h-0.3v-7.3h0.5v3.3H624.1z M624.1-103.4c0.2,0.3,0.4,0.5,0.6,0.6c0.2,0.1,0.5,0.2,0.8,0.2s0.6-0.1,0.8-0.2
	s0.4-0.3,0.6-0.5c0.1-0.2,0.3-0.4,0.3-0.7c0.1-0.3,0.1-0.6,0.1-1c0-0.7-0.1-1.2-0.4-1.5c-0.3-0.3-0.7-0.5-1.2-0.5
	c-0.4,0-0.7,0.1-0.9,0.3c-0.3,0.2-0.5,0.4-0.7,0.7L624.1-103.4L624.1-103.4z M629.6-109.6v7.3h-0.5v-7.3H629.6z M631.5-105
	L631.5-105c0,0.5,0,0.8,0.1,1.1c0.1,0.3,0.2,0.5,0.4,0.7s0.4,0.3,0.6,0.4c0.2,0.1,0.5,0.1,0.8,0.1c0.2,0,0.5,0,0.6-0.1
	c0.2-0.1,0.3-0.1,0.5-0.2c0.1-0.1,0.2-0.1,0.3-0.2s0.1-0.1,0.2-0.1h0.1l0.1,0.2c-0.1,0.1-0.2,0.2-0.3,0.3c-0.1,0.1-0.3,0.2-0.4,0.2
	c-0.2,0.1-0.3,0.1-0.5,0.1s-0.4,0.1-0.6,0.1c-0.3,0-0.6-0.1-0.9-0.2c-0.3-0.1-0.5-0.3-0.7-0.5s-0.4-0.5-0.5-0.8s-0.2-0.7-0.2-1.1
	s0.1-0.7,0.2-1c0.1-0.3,0.2-0.6,0.4-0.8c0.2-0.2,0.4-0.4,0.7-0.5s0.6-0.2,0.9-0.2c0.3,0,0.5,0,0.8,0.1c0.2,0.1,0.4,0.2,0.6,0.4
	c0.2,0.2,0.3,0.4,0.4,0.7c0.1,0.3,0.2,0.6,0.2,0.9c0,0.1,0,0.1,0,0.2h-0.1h-3.7V-105z M634.8-105.3c0-0.3,0-0.5-0.1-0.7
	s-0.2-0.4-0.3-0.5s-0.3-0.3-0.5-0.3c-0.2-0.1-0.4-0.1-0.6-0.1c-0.3,0-0.5,0-0.7,0.1s-0.4,0.2-0.5,0.3c-0.1,0.2-0.3,0.3-0.4,0.5
	c-0.1,0.2-0.2,0.4-0.2,0.7H634.8z"/>
<rect x="20.8" y="86.8" class="st11" width="80.8" height="30.5"/>
<text transform="matrix(1 0 0 1 37.2456 94.3613)" class="st9 st12">insufficient</text>
<text transform="matrix(1 0 0 1 34.5456 106.3613)" class="st9 st12">transactions</text>
<rect x="100.5" y="44.8" class="st11" width="80.8" height="30.5"/>
<text transform="matrix(1 0 0 1 100.5 51.6055)" class="st9 st13">more affordable</text>
<rect x="470.8" y="44.8" class="st11" width="80.8" height="30.5"/>
<text transform="matrix(1 0 0 1 493.1538 51.6055)" class="st9 st13">less affordable</text>
<rect x="24.7" y="21" class="st11" width="266.3" height="35"/>
<text transform="matrix(1 0 0 1 24.6665 30.0718)" class="st14 st15">Percent of Income Spent on Housing</text>
</svg>
